<svg xmlns="http://www.w3.org/2000/svg" viewBox="0 0 600 504" role="img" aria-label="Relational field: R. — relationship map. People &amp; systems: Father, Mother, R. (34), Partner, Daughter (6), Work (stress), Therapy service. Relationships: Father (conflict) Mother; R. (34) (cutoff) Father; R. (34) (fused) Mother; R. (34) (close) Partner; R. (34) (close) Daughter (6); Work (stress) (distant) R. (34); Therapy service (close) R. (34)."><title>R. — relationship map</title><desc>Relational field: R. — relationship map. People &amp; systems: Father, Mother, R. (34), Partner, Daughter (6), Work (stress), Therapy service. Relationships: Father (conflict) Mother; R. (34) (cutoff) Father; R. (34) (fused) Mother; R. (34) (close) Partner; R. (34) (close) Daughter (6); Work (stress) (distant) R. (34); Therapy service (close) R. (34).</desc><rect x="0" y="0" width="600" height="504" fill="#fff" /><text x="12" y="22" font-family="sans-serif" font-size="16" font-weight="700">R. — relationship map</text><path d="M 200,90 L 214.3,85 L 228.6,95 L 242.9,85 L 257.1,95 L 271.4,85 L 285.7,95 L 300,85 L 314.3,95 L 328.6,85 L 342.9,95 L 357.1,85 L 371.4,95 L 385.7,85 L 400,90" fill="none" stroke="#000" stroke-width="1.5" /><line x1="281.1" y1="226.7" x2="188.9" y2="113.3" stroke="#000" stroke-width="2" /><line x1="232.1" y1="177.5" x2="243" y2="168.7" stroke="#000" stroke-width="2" /><line x1="227" y1="171.3" x2="237.9" y2="162.5" stroke="#000" stroke-width="2" /><line x1="316.6" y1="224.8" x2="408.8" y2="111.4" stroke="#000" stroke-width="1.5" /><line x1="318.9" y1="226.7" x2="411.1" y2="113.3" stroke="#000" stroke-width="1.5" /><line x1="321.2" y1="228.6" x2="413.4" y2="115.2" stroke="#000" stroke-width="1.5" /><line x1="330" y1="250" x2="480" y2="250" stroke="#000" stroke-width="2" /><line x1="300" y1="280" x2="300" y2="350" stroke="#000" stroke-width="2" /><line x1="137.1" y1="327.2" x2="272.9" y2="262.8" stroke="#000" stroke-width="2" stroke-dasharray="6 5" /><line x1="485" y1="373.4" x2="325" y2="266.6" stroke="#000" stroke-width="2" /><g data-node-id="father"><rect data-el="node:father" x="148" y="68" width="44" height="44" fill="#fff" stroke="#000" stroke-width="2" /><text x="170" y="126" font-family="sans-serif" font-size="10" text-anchor="middle" data-el="nodelabel:father">Father</text></g><g data-node-id="mother"><circle data-el="node:mother" cx="430" cy="90" r="22" fill="#fff" stroke="#000" stroke-width="2" /><text x="430" y="126" font-family="sans-serif" font-size="10" text-anchor="middle" data-el="nodelabel:mother">Mother</text></g><g data-node-id="rindex"><circle data-el="node:rindex" cx="300" cy="250" r="22" fill="#fff" stroke="#000" stroke-width="2" /><circle cx="300" cy="250" r="26" fill="none" stroke="#000" stroke-width="2" /><text x="300" y="286" font-family="sans-serif" font-size="10" text-anchor="middle" data-el="nodelabel:rindex">R. (34)</text></g><g data-node-id="partner"><rect data-el="node:partner" x="488" y="228" width="44" height="44" fill="#fff" stroke="#000" stroke-width="2" /><text x="510" y="286" font-family="sans-serif" font-size="10" text-anchor="middle" data-el="nodelabel:partner">Partner</text></g><g data-node-id="daughter"><circle data-el="node:daughter" cx="300" cy="380" r="22" fill="#fff" stroke="#000" stroke-width="2" /><text x="300" y="416" font-family="sans-serif" font-size="10" text-anchor="middle" data-el="nodelabel:daughter">Daughter (6)</text></g><g data-node-id="work"><rect data-el="node:work" x="60" y="322" width="100" height="36" rx="8" ry="8" fill="#fff" stroke="#000" stroke-width="2" stroke-dasharray="4 3" /><text x="110" y="344" font-family="sans-serif" font-size="10" text-anchor="middle" data-el="nodelabel:work">Work (stress)</text></g><g data-node-id="service"><rect data-el="node:service" x="460" y="372" width="100" height="36" rx="8" ry="8" fill="#fff" stroke="#000" stroke-width="2" stroke-dasharray="4 3" /><text x="510" y="394" font-family="sans-serif" font-size="10" text-anchor="middle" data-el="nodelabel:service">Therapy service</text></g><text x="12" y="478" font-family="sans-serif" font-size="10">□ male · ○ female · ◇ other · ▭ system · ═ fused · zigzag = conflict · dashed = distant · ‖ cutoff · ⋯○ = origin (nested)</text><text x="12" y="492" font-family="sans-serif" font-size="9" fill="#333">This map supports, and does not replace, professional care.</text></svg>